<svg width="5256" height="1498" viewBox="0 0 5256 1498" fill="none" xmlns="http://www.w3.org/2000/svg">
<path fill-rule="evenodd" clip-rule="evenodd" d="M906.895 1448.11C890.861 1440.37 872.518 1423.44 874.517 1418.22C877.04 1411.66 887.966 1415.58 910.097 1431C920.708 1438.4 933.475 1446.9 938.468 1449.9C943.461 1452.9 950.234 1457.79 953.517 1460.77C956.803 1463.74 967.327 1470.5 976.909 1475.78C994.309 1485.37 1005.24 1494.67 1002.44 1497.48C1001.62 1498.29 998.752 1497.77 996.068 1496.31C984.537 1490.04 972.885 1485.39 968.685 1485.39C966.199 1485.39 961.331 1483.18 957.865 1480.48C954.399 1477.78 947.404 1473.45 942.319 1470.86C937.234 1468.28 929.613 1463.27 925.387 1459.74C921.158 1456.21 912.836 1450.98 906.895 1448.11Z" fill="#93A4B6"/>
<path d="M183.597 700.024L174.352 712.037L179.635 722.478C183.597 727.761 183.464 727.904 184.887 730.4C191.512 742.023 202.364 760.131 208.997 770.64C215.633 781.151 222.844 793.141 225.024 797.291C227.203 801.438 231.712 808.293 235.046 812.522C238.38 816.754 246.08 827.941 252.158 837.385C258.237 846.829 267.754 860.499 273.304 867.764C278.857 875.028 293.563 894.346 305.988 910.69C318.415 927.036 329.686 940.408 331.039 940.408C332.389 940.408 334.246 942.489 335.162 945.031C336.079 947.572 341.69 955.077 347.628 961.704C353.566 968.332 370.306 987.352 384.827 1003.97C399.351 1020.59 417.776 1040.78 425.772 1048.84C433.771 1056.91 448.244 1071.76 457.933 1081.86C467.625 1091.96 483.98 1107.95 494.279 1117.4C504.579 1126.84 525.772 1146.86 541.379 1161.89C556.985 1176.92 571.612 1190.21 573.886 1191.44C576.158 1192.66 588.64 1202.8 601.623 1213.97C614.604 1225.15 631.764 1239.15 639.755 1245.09C647.746 1251.03 659.633 1260.4 666.171 1265.9C686.511 1283.03 690.901 1286.48 703.409 1295.18C710.09 1299.83 707.184 1298.41 715.54 1304.95C723.895 1311.49 728.367 1315.25 733.05 1318.16C737.734 1321.06 740.161 1323.86 746.258 1328.73C756.856 1337.18 779.278 1351.53 779.278 1344.58C779.278 1341.17 767.589 1328.73 759.466 1320.8C750.221 1312.88 738.154 1303.23 715.54 1284.59C685.103 1259.49 674.114 1250.6 659.065 1238.91C650.649 1232.37 633.053 1217.46 619.967 1205.77C606.877 1194.08 593.569 1182.73 590.391 1180.54C587.213 1178.36 575.326 1168 563.975 1157.53C552.624 1147.07 541.553 1136.89 539.374 1134.91C525.659 1122.5 456.552 1050.36 434.019 1024.94C419.207 1008.23 404.93 992.183 402.291 989.277C387.722 973.24 355.339 933.917 352.636 928.983C350.906 925.824 343.895 916.699 337.059 908.708C330.22 900.718 321.542 889.425 317.778 883.613C314.011 877.802 302.661 861.754 292.551 847.952C282.444 834.149 270.544 816.622 266.108 809.001C261.673 801.38 247.71 778.2 235.078 757.49C222.445 736.78 208.997 713.021 205.188 704.695C202.997 699.906 203.409 701.345 202.088 698.703C200.768 696.062 201.494 696.492 199.447 693.42C196.805 689.458 196.261 688.269 194.164 685.498C190.201 690.779 188.88 692.099 183.597 700.024Z" fill="#93A4B6"/>
<path fill-rule="evenodd" clip-rule="evenodd" d="M1331.02 360.072C1323.85 360.072 1321.32 354.392 1325.24 347.07L1325.28 346.996C1326.24 345.198 1326.95 343.871 1328.04 343.054C1331.11 340.757 1337.19 342.487 1360.38 349.083L1360.72 349.178C1375.41 353.354 1392.44 357.523 1398.56 358.439C1404.68 359.356 1413.94 362.983 1419.12 366.501C1424.31 370.02 1432.07 373.673 1436.38 374.619C1440.7 375.567 1444.22 378.029 1444.22 380.092C1444.22 386.488 1434.71 385.178 1391.39 372.828C1386.3 371.378 1375.61 369.035 1367.62 367.619C1359.62 366.206 1349.44 363.928 1344.97 362.56C1340.51 361.192 1334.23 360.072 1331.02 360.072Z" fill="#006CBA"/>
<path d="M935.608 353.921C927.617 355.07 897.899 358.541 869.568 361.635C841.237 364.728 811.518 368.923 803.528 370.957C795.537 372.991 776.517 376.433 761.262 378.604C746.007 380.778 725.204 384.337 715.034 386.516C704.864 388.695 690.005 391.841 682.014 393.508C662.081 397.669 645.85 401.969 613.332 411.709C598.077 416.279 580.841 421.052 575.029 422.318C562.843 424.967 533.963 434.435 521.798 439.768C517.22 441.773 512.209 443.416 510.661 443.416C509.113 443.416 503.944 445.057 499.173 447.059C494.402 449.061 480.394 454.495 468.044 459.131C436.049 471.145 426.936 474.859 405.071 484.794C394.407 489.642 384.897 493.641 383.938 493.681C382.977 493.723 372.088 499.019 359.739 505.454C323.953 524.093 310.539 530.589 307.826 530.589C306.431 530.589 301.198 533.643 296.192 537.373C291.189 541.103 280.797 547.16 273.097 550.834C265.399 554.506 253.8 561.556 247.32 566.504C240.84 571.449 234.823 575.496 233.948 575.496C233.074 575.496 224.705 580.845 215.352 587.383C206 593.921 197.661 599.271 196.818 599.271C194.332 599.271 154.074 631.324 140.824 643.853C134.101 650.211 121.762 660.683 113.41 667.12C105.057 673.56 98.2203 679.657 98.2203 680.674C98.2203 682.346 79.8004 704.478 61.539 724.747C57.611 729.105 50.8854 738.478 46.5902 745.573C42.2976 752.669 35.4743 763.961 31.43 770.668C27.3857 777.376 22.8027 785.834 21.2468 789.466C19.6883 793.098 16.7904 799.906 14.8039 804.595C5.87532 825.664 -0.0550877 857.173 0.00038587 883.243C0.100767 930.858 11.5865 964.747 43.6976 1012.17C53.3448 1026.43 60.7581 1039.1 62.0789 1040.42C64.2395 1043.32 66.8811 1056.27 68.6829 1058.91C68.6829 1069.48 68.6816 1087.97 64.7192 1095.89C60.7568 1109.1 58.1165 1113.06 48.8709 1130.23C51.8691 1132.33 90.6423 1106.23 117.553 1105.14C132.908 1105.14 165.101 1118.35 183.593 1130.23C170.385 1106.46 163.781 1089.29 158.497 1064.19C159.818 1043.06 165.101 1028.53 183.593 1003.44C154.535 1021.93 150.573 1022.77 130.761 1024.57C97.7405 1027.57 79.708 1001.52 62.7304 968.913C50.9647 946.314 47.3695 936.25 43.8588 916.081C39.4764 890.901 39.9334 864.871 45.0396 848.902C46.4343 844.544 49.6544 833.845 52.1957 825.128C54.7369 816.41 60.0676 803.929 64.0459 797.391C68.0215 790.853 74.4644 779.56 78.366 772.296C86.0584 757.97 89.0645 753.58 112.326 722.739C126.739 703.627 180.527 651.622 195.761 642.07C199.502 639.724 209.102 632.285 217.092 625.541C225.083 618.797 236.97 609.832 243.508 605.616C250.046 601.4 260.423 594.175 266.569 589.56C272.714 584.945 280.44 580.346 283.74 579.34C287.036 578.333 299.41 571.708 311.236 564.615C323.06 557.525 333.344 551.722 334.083 551.722C334.826 551.722 341.615 547.561 349.172 542.476C356.73 537.391 364.523 533.231 366.491 533.231C368.461 533.231 375.987 529.744 383.217 525.48C395.746 518.092 431.474 501.531 434.882 501.531C435.769 501.531 445.208 497.397 455.859 492.344C466.509 487.288 485.196 479.667 497.39 475.406C509.581 471.145 523.122 466.39 527.48 464.842C558.421 453.848 583.097 445.68 600.124 440.801C611.021 437.679 627.663 432.858 637.107 430.089C646.55 427.321 663.193 423.213 674.089 420.957C684.986 418.701 699.845 415.146 707.109 413.053C727.743 407.11 756.145 401.7 811.452 393.175C829.613 390.375 849.811 386.97 856.336 385.61C862.863 384.249 868.017 383.036 870.408 383.036C873.3 383.036 877.242 381.92 887.578 381.715C900.667 379.38 985.653 371.335 1001.17 370.957C1042.95 365.781 1157.02 353.921 1172.87 353.921C1183.44 352.657 1178.15 353.921 1199.29 351.336C1208.35 342.27 1215.83 330.3 1196.65 328.884C1166.61 326.67 949.983 351.85 935.608 353.921Z" fill="#006FC0"/>
<path fill-rule="evenodd" clip-rule="evenodd" d="M906.895 1448.11C890.861 1440.37 872.518 1423.44 874.517 1418.22C877.04 1411.66 887.966 1415.58 910.097 1431C920.708 1438.4 933.475 1446.9 938.468 1449.9C943.461 1452.9 950.234 1457.79 953.517 1460.77C956.803 1463.74 967.327 1470.5 976.909 1475.78C994.309 1485.37 1005.24 1494.67 1002.44 1497.48C1001.62 1498.29 998.752 1497.77 996.068 1496.31C984.537 1490.04 972.885 1485.39 968.685 1485.39C966.199 1485.39 961.331 1483.18 957.865 1480.48C954.399 1477.78 947.404 1473.45 942.319 1470.86C937.234 1468.28 929.613 1463.27 925.387 1459.74C921.158 1456.21 912.836 1450.98 906.895 1448.11Z" fill="#89AAB9"/>
<path d="M399.544 72.8556C388.317 80.7804 383.034 82.685 368.505 82.685C353.976 82.685 358.599 82.685 358.599 82.685C341.793 83.0073 322.692 83.3798 316.154 83.5145C309.616 83.6466 301.889 84.5447 298.983 85.5089C296.077 86.4757 284.872 88.5045 274.084 90.0208C255.048 92.6967 236.441 97.7897 219.337 105.004C214.759 106.935 209.753 108.515 208.215 108.515C203.569 108.515 165.551 129.552 144.45 143.804C108.141 168.323 79.8098 203.174 65.3022 241.163C60.888 252.722 57.2638 264.158 57.2479 266.575C57.2321 268.995 55.3063 276.917 52.9659 284.181C47.6985 300.538 46.5494 389.584 51.4179 404.374C53.09 409.459 55.1293 420.752 55.9482 429.469C56.7671 438.187 59.0812 449.48 61.0888 454.565C64.3248 462.759 66.5939 471.017 75.607 507.397C76.8671 512.482 80.391 522.885 83.4367 530.511C86.4852 538.14 91.2163 550.027 93.9503 556.927C96.687 563.827 100.943 574.121 103.407 579.798L121.515 610.21L133.402 599.644L147.931 587.757C136.506 565.552 140.006 575.87 129.242 550.711C118.478 525.553 117.54 519.802 112.209 499.472C109.354 488.575 105.365 473.716 103.347 466.452C97.0516 443.805 94.2383 420.419 92.4974 376.36C91.1027 341.007 91.6046 330.293 95.4666 312.962C104.99 270.212 107.734 260.528 111.514 256.349C113.649 253.993 115.392 250.53 115.392 248.654C115.392 241.438 130.766 220.381 150.528 200.535C161.861 189.152 172.129 179.838 173.341 179.838C174.554 179.838 182.824 174.977 191.721 169.036C214.835 153.602 252.726 140.515 298.983 131.993C306.248 130.657 328.139 129 347.631 128.313L383.034 129.65L393.236 137.752C403.63 148.683 420.016 162.67 430.583 207.577C433.626 207.577 434.545 161.349 466.244 137.752C495.302 120.405 486.056 125.688 530.963 109.838C488.698 97.9509 484.965 96.918 468.886 84.7429C458.834 77.1298 443.791 51.5113 437.187 0C421.337 42.2657 410.771 64.9308 399.544 72.8556Z" fill="#8AA3B2"/>
<path d="M183.597 700.024L174.352 712.037L179.635 722.478C183.597 727.761 183.464 727.904 184.887 730.4C191.512 742.023 202.364 760.131 208.997 770.64C215.633 781.151 222.844 793.141 225.024 797.291C227.203 801.438 231.712 808.293 235.046 812.522C238.38 816.754 246.08 827.941 252.158 837.385C258.237 846.829 267.754 860.499 273.304 867.764C278.857 875.028 293.563 894.346 305.988 910.69C318.415 927.036 329.686 940.408 331.039 940.408C332.389 940.408 334.246 942.489 335.162 945.031C336.079 947.572 341.69 955.077 347.628 961.704C353.566 968.332 370.306 987.352 384.827 1003.97C399.351 1020.59 417.776 1040.78 425.772 1048.84C433.771 1056.91 448.244 1071.76 457.933 1081.86C467.625 1091.96 483.98 1107.95 494.279 1117.4C504.579 1126.84 525.772 1146.86 541.379 1161.89C556.985 1176.92 571.612 1190.21 573.886 1191.44C576.158 1192.66 588.64 1202.8 601.623 1213.97C614.604 1225.15 631.764 1239.15 639.755 1245.09C647.746 1251.03 659.633 1260.4 666.171 1265.9C686.511 1283.03 690.901 1286.48 703.409 1295.18C710.09 1299.83 707.184 1298.41 715.54 1304.95C723.895 1311.49 728.367 1315.25 733.05 1318.16C737.734 1321.06 740.161 1323.86 746.258 1328.73C756.856 1337.18 779.278 1351.53 779.278 1344.58C779.278 1341.17 767.589 1328.73 759.466 1320.8C750.221 1312.88 738.154 1303.23 715.54 1284.59C685.103 1259.49 674.114 1250.6 659.065 1238.91C650.649 1232.37 633.053 1217.46 619.967 1205.77C606.877 1194.08 593.569 1182.73 590.391 1180.54C587.213 1178.36 575.326 1168 563.975 1157.53C552.624 1147.07 541.553 1136.89 539.374 1134.91C525.659 1122.5 456.552 1050.36 434.019 1024.94C419.207 1008.23 404.93 992.183 402.291 989.277C387.722 973.24 355.339 933.917 352.636 928.983C350.906 925.824 343.895 916.699 337.059 908.708C330.22 900.718 321.542 889.425 317.778 883.613C314.011 877.802 302.661 861.754 292.551 847.952C282.444 834.149 270.544 816.622 266.108 809.001C261.673 801.38 247.71 778.2 235.078 757.49C222.445 736.78 208.997 713.021 205.188 704.695C202.997 699.906 203.409 701.345 202.088 698.703C200.768 696.062 201.494 696.492 199.447 693.42C196.805 689.458 196.261 688.269 194.164 685.498C190.201 690.779 188.88 692.099 183.597 700.024Z" fill="#8AA3B2"/>
<path d="M156.889 742.946C149.572 751.764 156.274 838.723 168.137 888.897C170.2 897.615 191.89 970.988 192.841 976.074C203.406 976.074 207.368 974.753 219.256 972.111C211.331 993.244 210.01 995.886 206.049 1013.06C216.33 1037.61 239.513 1075.42 252.893 1096.26C260.823 1108.61 268.418 1121.09 269.77 1124C271.125 1126.91 277.032 1135.23 282.899 1142.49C288.766 1149.76 298.326 1161.85 304.145 1169.38C315.459 1184.01 373.521 1242.64 390.467 1256.54C407.891 1270.84 452.133 1304.95 453.25 1304.95C453.834 1304.95 461.859 1309.66 471.086 1315.41C500.765 1333.92 567.317 1365.71 576.38 1365.71C579.202 1365.71 585.402 1368.08 590.159 1370.98C594.917 1373.88 601.439 1376.26 604.654 1376.26C607.868 1376.27 616.189 1378.5 623.145 1381.22C634.821 1385.79 658.339 1390.01 712.396 1397.25C724.02 1398.81 747.625 1400.07 764.851 1400.07H777.954L797.766 1400.46C826.824 1411.94 820.22 1407.98 843.994 1451.56C846.636 1407.98 853.968 1410.05 862.486 1397.25C875.101 1388.92 874.818 1390.56 892.025 1387.35C926.115 1380.99 1000.45 1358.37 1020.72 1348.19C1027.57 1344.75 1035.18 1341.93 1037.64 1341.93C1040.09 1341.93 1045.78 1339.18 1050.27 1335.83C1054.77 1332.47 1062.61 1328.09 1067.69 1326.1C1072.78 1324.1 1084.01 1317.93 1092.65 1312.39C1101.3 1306.84 1109.7 1302.31 1111.33 1302.31C1112.96 1302.31 1118.96 1298.39 1124.67 1293.61C1130.38 1288.82 1141.59 1280.23 1149.58 1274.53C1188.62 1246.63 1240.6 1191.88 1238.94 1180.41C1238.13 1174.85 1237.11 1175.31 1223.55 1187.15C1215.56 1194.13 1204.95 1203.59 1199.98 1208.15C1190.97 1216.43 1158.48 1240.93 1128.85 1261.79C1120.26 1267.84 1104.47 1277.24 1093.76 1282.69C1083.06 1288.14 1072.51 1294.07 1070.33 1295.87C1068.15 1297.67 1058.64 1302.31 1049.2 1306.18C1039.76 1310.05 1026.09 1316.01 1018.82 1319.42C989.205 1333.35 951.983 1346.77 911.355 1353.82C911.355 1353.82 897.723 1357.79 887.581 1357.79C874.373 1357.79 867.769 1359.11 851.919 1340.61C836.07 1322.12 841.353 1328.73 826.824 1282.69C826.824 1282.69 821.541 1323.97 814.937 1341.93C808.333 1359.9 772.671 1363.02 772.671 1363.02H753.016C729.223 1361.45 708.117 1359.61 706.115 1358.93C704.112 1358.25 694.008 1355.93 683.661 1353.79C652.48 1347.33 569.364 1319.12 561.957 1312.48C560.576 1311.24 557.393 1310.23 554.88 1310.23C552.371 1310.23 548.744 1308.7 546.824 1306.83C544.906 1304.95 530.773 1297.26 515.423 1289.74C500.07 1282.21 481.645 1271.56 474.478 1266.07C467.309 1260.58 457.009 1253.7 451.591 1250.79C428.142 1238.18 356.34 1170.77 335.263 1141.57C321.569 1122.6 305.03 1100.54 297.258 1090.88C282.259 1072.23 247.536 1001.57 231.102 956.258C214.389 910.17 193.451 823.309 193.354 799.656C193.335 795.612 190.305 786.696 186.62 779.844C164.024 737.829 162.603 736.065 156.889 742.946Z" fill="#02CFE9"/>
<path d="M775.797 116.501C771.439 117.851 765.669 118.424 762.978 117.769C756.965 116.313 699.45 123.401 688.891 126.901C684.678 128.298 677.21 129.439 672.297 129.439C667.381 129.439 659.091 131.223 653.877 133.402C648.66 135.581 642.283 137.364 639.705 137.364C634.91 137.364 576.132 156.149 561.828 162.251C557.469 164.111 540.013 171.296 523.036 178.217C506.061 185.138 490.013 192.79 487.374 195.221C484.738 197.651 478.532 201.299 473.587 203.33C468.64 205.362 457.104 212.153 447.948 218.422C438.792 224.69 434.548 246.994 433.228 254.919C429.265 248.315 429.265 241.711 419.804 237.748C412.059 244.791 392.857 258.688 386.515 262.666C371.194 272.274 319.421 325.172 294.138 357.051C264.692 394.178 253.698 410.665 236.927 442.821C228.693 458.61 221.899 470.209 218.702 475.49C216.616 480.776 213.975 484.738 210.495 491.339C207.771 497.877 204.729 503.327 202.319 507.189C199.446 513.796 199.446 515.117 196.177 522.127C194.571 528.163 180.683 563.569 176.992 571.911C199.446 556.061 198.125 554.741 221.899 541.533C224.541 533.608 221.899 541.533 223.22 537.57C224.541 533.608 225.998 530.501 227.208 528.322C228.415 526.142 234.063 514.894 239.761 503.327C249.21 484.136 263.126 461.132 283.411 431.166C287.619 424.948 291.064 419.149 291.064 418.278C291.064 416.788 302.322 403.152 315.799 388.317C319.101 384.684 324.863 377.499 328.606 372.351C338.113 359.27 387.936 309.061 400.69 299.707C406.501 295.443 415.102 288.377 419.804 284.002C437.746 267.307 473.445 245.456 522.959 220.857C539.355 212.711 554.246 206.046 556.05 206.046C557.854 206.046 561.946 204.213 565.143 201.975C568.339 199.735 576.034 196.24 582.242 194.209C588.45 192.178 601.848 187.523 612.018 183.864C622.188 180.206 633.555 177.163 637.277 177.099C641.002 177.039 654.487 173.459 667.246 169.145C681.444 164.348 697.859 160.89 709.556 160.235C720.067 159.646 731.075 157.879 734.015 156.305C742.156 151.946 867.72 151.153 899.952 155.256C935.963 159.839 949.226 162.293 973.917 168.947C985.54 172.078 998.022 175.277 1001.65 176.056C1008.15 177.445 1024.47 183.254 1050.52 193.446C1071.11 201.5 1122.76 227.689 1131.22 234.367C1133.46 236.142 1140.99 240.614 1147.93 244.307C1154.87 247.997 1165.76 254.868 1172.13 259.57C1178.5 264.275 1187.93 271.095 1193.09 274.728C1201.99 280.991 1208.62 286.755 1233.3 309.71C1242.71 318.457 1244.12 321.355 1245.49 334.806C1246.84 347.942 1233.68 363.224 1220.42 386.999C1245.52 376.39 1254.87 371.371 1264.01 369.828C1275.68 369.828 1282.5 373.791 1289.11 377.753C1296.16 381.987 1303.64 388.32 1310.24 394.924C1315.52 400.207 1367.03 457.001 1373.64 463.605C1364.39 446.435 1323.45 389.64 1319.48 377.753C1316.14 367.729 1310.24 353.979 1310.24 334.806C1314.2 320.277 1316.84 309.071 1330.05 290.58C1307.6 301.147 1290.44 305.209 1286.46 305.109C1271.94 304.742 1264.43 303.595 1240.29 281.287C1227.73 269.688 1214.97 258.54 1211.92 256.511C1208.87 254.482 1205.19 251.463 1203.74 249.802C1202.28 248.14 1195.15 242.704 1187.89 237.719C1180.62 232.734 1172.21 226.529 1169.2 223.93C1158.3 214.528 1127.77 196.792 1080.9 172.632C1054.36 158.951 1050.4 157.322 1014.86 145.474C973.106 131.553 944.511 124.037 923.51 121.459C912.006 120.046 894.273 117.737 884.103 116.327C860.859 113.104 786.369 113.223 775.797 116.501Z" fill="#02CFE9"/>
<path d="M3426.4 1219.49C3411.59 1219.49 3400 1215.37 3391.65 1207.12C3383.3 1198.86 3379.12 1187.08 3379.12 1171.77V1113.31H3403.28V1170.88C3403.28 1180.82 3405.32 1187.98 3409.4 1192.35C3413.47 1196.73 3419.19 1198.91 3426.55 1198.91C3433.91 1198.91 3439.62 1196.73 3443.7 1192.35C3447.77 1187.98 3449.81 1180.82 3449.81 1170.88V1113.31H3473.67V1171.77C3473.67 1187.08 3469.5 1198.86 3461.15 1207.12C3452.8 1215.37 3441.21 1219.49 3426.4 1219.49ZM3497.55 1217.71V1113.31H3517.53L3579.12 1188.47H3569.43V1113.31H3593.29V1217.71H3573.46L3511.72 1142.54H3521.41V1217.71H3497.55ZM3617.99 1217.71V1113.31H3642.15V1198.02H3694.5V1217.71H3617.99ZM3708 1217.71V1113.31H3786.89V1132.7H3732.01V1198.32H3788.83V1217.71H3708ZM3730.22 1174.16V1155.37H3780.47V1174.16H3730.22ZM3794.33 1217.71L3840.86 1113.31H3864.72L3911.4 1217.71H3886.05L3847.87 1125.54H3857.41L3819.08 1217.71H3794.33ZM3817.59 1195.34L3824.01 1176.99H3877.69L3884.26 1195.34H3817.59ZM3956.53 1219.49C3948.18 1219.49 3940.18 1218.4 3932.52 1216.21C3924.86 1213.93 3918.7 1210.99 3914.03 1207.41L3922.23 1189.22C3926.7 1192.4 3931.97 1195.04 3938.04 1197.12C3944.2 1199.11 3950.42 1200.11 3956.68 1200.11C3961.45 1200.11 3965.28 1199.66 3968.16 1198.77C3971.15 1197.77 3973.33 1196.43 3974.72 1194.74C3976.12 1193.05 3976.81 1191.11 3976.81 1188.92C3976.81 1186.14 3975.72 1183.95 3973.53 1182.36C3971.34 1180.67 3968.46 1179.33 3964.88 1178.33C3961.3 1177.24 3957.33 1176.25 3952.95 1175.35C3948.68 1174.36 3944.35 1173.16 3939.98 1171.77C3935.7 1170.38 3931.77 1168.59 3928.19 1166.4C3924.62 1164.22 3921.68 1161.33 3919.4 1157.75C3917.21 1154.17 3916.11 1149.6 3916.11 1144.03C3916.11 1138.07 3917.71 1132.65 3920.89 1127.78C3924.17 1122.81 3929.04 1118.88 3935.5 1116C3942.06 1113.01 3950.27 1111.52 3960.11 1111.52C3966.67 1111.52 3973.13 1112.32 3979.5 1113.91C3985.86 1115.4 3991.48 1117.69 3996.35 1120.77L3988.89 1139.11C3984.02 1136.33 3979.15 1134.29 3974.28 1133C3969.41 1131.61 3964.63 1130.91 3959.96 1130.91C3955.29 1130.91 3951.46 1131.46 3948.48 1132.55C3945.49 1133.64 3943.36 1135.09 3942.06 1136.87C3940.77 1138.56 3940.13 1140.55 3940.13 1142.84C3940.13 1145.52 3941.22 1147.71 3943.41 1149.4C3945.59 1150.99 3948.48 1152.29 3952.06 1153.28C3955.64 1154.27 3959.56 1155.27 3963.84 1156.26C3968.21 1157.26 3972.54 1158.4 3976.81 1159.69C3981.19 1160.98 3985.16 1162.72 3988.74 1164.91C3992.32 1167.1 3995.21 1169.98 3997.39 1173.56C3999.68 1177.14 4000.82 1181.66 4000.82 1187.13C4000.82 1193 3999.18 1198.37 3995.9 1203.24C3992.62 1208.11 3987.7 1212.04 3981.14 1215.02C3974.67 1218 3966.47 1219.49 3956.53 1219.49ZM4088.92 1217.71V1113.31H4113.07V1217.71H4088.92ZM4017.33 1217.71V1113.31H4041.49V1217.71H4017.33ZM4039.7 1174.9V1154.47H4090.7V1174.9H4039.7Z" fill="#02CFE9"/>
<path d="M4205.96 1217.71V1175.05L4211.48 1189.67L4165.54 1113.31H4191.19L4226.39 1171.92H4211.63L4246.97 1113.31H4270.68L4224.75 1189.67L4230.12 1175.05V1217.71H4205.96ZM4326.98 1219.49C4318.73 1219.49 4311.07 1218.15 4304.01 1215.47C4297.05 1212.78 4290.99 1209.01 4285.82 1204.13C4280.75 1199.26 4276.77 1193.55 4273.89 1186.98C4271.11 1180.42 4269.71 1173.26 4269.71 1165.51C4269.71 1157.75 4271.11 1150.6 4273.89 1144.03C4276.77 1137.47 4280.8 1131.75 4285.97 1126.88C4291.14 1122.01 4297.2 1118.23 4304.16 1115.55C4311.12 1112.86 4318.68 1111.52 4326.83 1111.52C4335.08 1111.52 4342.64 1112.86 4349.5 1115.55C4356.46 1118.23 4362.47 1122.01 4367.55 1126.88C4372.72 1131.75 4376.74 1137.47 4379.63 1144.03C4382.51 1150.5 4383.95 1157.65 4383.95 1165.51C4383.95 1173.26 4382.51 1180.47 4379.63 1187.13C4376.74 1193.69 4372.72 1199.41 4367.55 1204.28C4362.47 1209.06 4356.46 1212.78 4349.5 1215.47C4342.64 1218.15 4335.13 1219.49 4326.98 1219.49ZM4326.83 1198.91C4331.5 1198.91 4335.78 1198.12 4339.66 1196.53C4343.63 1194.94 4347.11 1192.65 4350.1 1189.67C4353.08 1186.69 4355.37 1183.16 4356.96 1179.08C4358.65 1175 4359.49 1170.48 4359.49 1165.51C4359.49 1160.54 4358.65 1156.01 4356.96 1151.94C4355.37 1147.86 4353.08 1144.33 4350.1 1141.35C4347.21 1138.37 4343.78 1136.08 4339.81 1134.49C4335.83 1132.9 4331.5 1132.1 4326.83 1132.1C4322.16 1132.1 4317.83 1132.9 4313.86 1134.49C4309.98 1136.08 4306.55 1138.37 4303.57 1141.35C4300.58 1144.33 4298.25 1147.86 4296.56 1151.94C4294.97 1156.01 4294.17 1160.54 4294.17 1165.51C4294.17 1170.38 4294.97 1174.9 4296.56 1179.08C4298.25 1183.16 4300.53 1186.69 4303.42 1189.67C4306.4 1192.65 4309.88 1194.94 4313.86 1196.53C4317.83 1198.12 4322.16 1198.91 4326.83 1198.91ZM4448.49 1219.49C4433.67 1219.49 4422.09 1215.37 4413.74 1207.12C4405.39 1198.86 4401.21 1187.08 4401.21 1171.77V1113.31H4425.37V1170.88C4425.37 1180.82 4427.41 1187.98 4431.49 1192.35C4435.56 1196.73 4441.28 1198.91 4448.64 1198.91C4455.99 1198.91 4461.71 1196.73 4465.79 1192.35C4469.86 1187.98 4471.9 1180.82 4471.9 1170.88V1113.31H4495.76V1171.77C4495.76 1187.08 4491.59 1198.86 4483.24 1207.12C4474.88 1215.37 4463.3 1219.49 4448.49 1219.49ZM4519.64 1217.71V1113.31H4564.23C4578.74 1113.31 4590.03 1116.69 4598.08 1123.45C4606.13 1130.11 4610.16 1139.36 4610.16 1151.19C4610.16 1158.95 4608.32 1165.66 4604.64 1171.32C4600.96 1176.89 4595.74 1181.17 4588.98 1184.15C4582.22 1187.13 4574.17 1188.62 4564.82 1188.62H4533.06L4543.8 1178.04V1217.71H4519.64ZM4586 1217.71L4559.9 1179.83H4585.7L4612.1 1217.71H4586ZM4543.8 1180.72L4533.06 1169.39H4563.48C4570.94 1169.39 4576.51 1167.8 4580.19 1164.61C4583.86 1161.33 4585.7 1156.86 4585.7 1151.19C4585.7 1145.43 4583.86 1140.95 4580.19 1137.77C4576.51 1134.59 4570.94 1133 4563.48 1133H4533.06L4543.8 1121.51V1180.72ZM4721.94 1219.49C4713.69 1219.49 4706.09 1218.2 4699.13 1215.62C4692.27 1212.93 4686.25 1209.15 4681.08 1204.28C4676.01 1199.41 4672.03 1193.69 4669.15 1187.13C4666.37 1180.57 4664.98 1173.36 4664.98 1165.51C4664.98 1157.65 4666.37 1150.45 4669.15 1143.88C4672.03 1137.32 4676.06 1131.61 4681.23 1126.73C4686.4 1121.86 4692.47 1118.13 4699.43 1115.55C4706.39 1112.86 4714.04 1111.52 4722.39 1111.52C4731.64 1111.52 4739.94 1113.06 4747.3 1116.15C4754.75 1119.23 4761.02 1123.7 4766.09 1129.57L4750.58 1143.88C4746.8 1139.91 4742.67 1136.97 4738.2 1135.09C4733.73 1133.1 4728.85 1132.1 4723.59 1132.1C4718.51 1132.1 4713.89 1132.9 4709.72 1134.49C4705.54 1136.08 4701.91 1138.37 4698.83 1141.35C4695.85 1144.33 4693.51 1147.86 4691.82 1151.94C4690.23 1156.01 4689.43 1160.54 4689.43 1165.51C4689.43 1170.38 4690.23 1174.85 4691.82 1178.93C4693.51 1183.01 4695.85 1186.59 4698.83 1189.67C4701.91 1192.65 4705.49 1194.94 4709.57 1196.53C4713.74 1198.12 4718.32 1198.91 4723.29 1198.91C4728.06 1198.91 4732.68 1198.17 4737.16 1196.68C4741.73 1195.09 4746.15 1192.45 4750.43 1188.77L4764.15 1206.22C4758.48 1210.5 4751.87 1213.78 4744.31 1216.06C4736.86 1218.35 4729.4 1219.49 4721.94 1219.49ZM4764.15 1206.22L4742.08 1203.09V1163.87H4764.15V1206.22ZM4786.59 1217.71V1113.31H4865.48V1132.7H4810.6V1198.32H4867.42V1217.71H4786.59ZM4808.81 1174.16V1155.37H4859.07V1174.16H4808.81ZM4886.64 1217.71V1113.31H4906.63L4968.22 1188.47H4958.53V1113.31H4982.39V1217.71H4962.55L4900.81 1142.54H4910.51V1217.71H4886.64ZM5007.09 1217.71V1113.31H5031.25V1217.71H5007.09ZM5102.4 1219.49C5087.59 1219.49 5076.01 1215.37 5067.65 1207.12C5059.3 1198.86 5055.13 1187.08 5055.13 1171.77V1113.31H5079.29V1170.88C5079.29 1180.82 5081.33 1187.98 5085.4 1192.35C5089.48 1196.73 5095.19 1198.91 5102.55 1198.91C5109.91 1198.91 5115.63 1196.73 5119.7 1192.35C5123.78 1187.98 5125.82 1180.82 5125.82 1170.88V1113.31H5149.68V1171.77C5149.68 1187.08 5145.5 1198.86 5137.15 1207.12C5128.8 1215.37 5117.22 1219.49 5102.4 1219.49ZM5207.85 1219.49C5199.5 1219.49 5191.5 1218.4 5183.84 1216.21C5176.19 1213.93 5170.02 1210.99 5165.35 1207.41L5173.55 1189.22C5178.03 1192.4 5183.3 1195.04 5189.36 1197.12C5195.52 1199.11 5201.74 1200.11 5208 1200.11C5212.77 1200.11 5216.6 1199.66 5219.49 1198.77C5222.47 1197.77 5224.66 1196.43 5226.05 1194.74C5227.44 1193.05 5228.13 1191.11 5228.13 1188.92C5228.13 1186.14 5227.04 1183.95 5224.85 1182.36C5222.67 1180.67 5219.78 1179.33 5216.2 1178.33C5212.62 1177.24 5208.65 1176.25 5204.27 1175.35C5200 1174.36 5195.67 1173.16 5191.3 1171.77C5187.02 1170.38 5183.1 1168.59 5179.52 1166.4C5175.94 1164.22 5173.01 1161.33 5170.72 1157.75C5168.53 1154.17 5167.44 1149.6 5167.44 1144.03C5167.44 1138.07 5169.03 1132.65 5172.21 1127.78C5175.49 1122.81 5180.36 1118.88 5186.82 1116C5193.39 1113.01 5201.59 1111.52 5211.43 1111.52C5217.99 1111.52 5224.46 1112.32 5230.82 1113.91C5237.18 1115.4 5242.8 1117.69 5247.67 1120.77L5240.21 1139.11C5235.34 1136.33 5230.47 1134.29 5225.6 1133C5220.73 1131.61 5215.96 1130.91 5211.28 1130.91C5206.61 1130.91 5202.78 1131.46 5199.8 1132.55C5196.82 1133.64 5194.68 1135.09 5193.39 1136.87C5192.09 1138.56 5191.45 1140.55 5191.45 1142.84C5191.45 1145.52 5192.54 1147.71 5194.73 1149.4C5196.92 1150.99 5199.8 1152.29 5203.38 1153.28C5206.96 1154.27 5210.89 1155.27 5215.16 1156.26C5219.53 1157.26 5223.86 1158.4 5228.13 1159.69C5232.51 1160.98 5236.49 1162.72 5240.07 1164.91C5243.64 1167.1 5246.53 1169.98 5248.72 1173.56C5251 1177.14 5252.15 1181.66 5252.15 1187.13C5252.15 1193 5250.5 1198.37 5247.22 1203.24C5243.94 1208.11 5239.02 1212.04 5232.46 1215.02C5226 1218 5217.79 1219.49 5207.85 1219.49Z" fill="#0187EA"/>
<path d="M4157.49 514.064C4157.49 446.49 4213.01 391.713 4281.46 391.713H4661.64V514.064H4157.49Z" fill="#02CFE9"/>
<path d="M4537.66 742.455C4606.11 742.455 4661.63 687.676 4661.63 620.103V391.714L4537.66 391.713V742.455Z" fill="url(#paint0_linear_159_4726)"/>
<path d="M4661.64 620.098C4661.64 687.673 4606.12 742.45 4537.67 742.45H4157.49V620.098H4661.64Z" fill="#02CFE9"/>
<path d="M4281.49 970.839C4213.01 970.839 4157.49 916.057 4157.49 848.49V620.098H4281.49V970.839Z" fill="url(#paint1_linear_159_4726)"/>
<path d="M4661.34 970.856C4661.34 903.282 4605.84 848.504 4537.39 848.504H4157.21V970.856H4661.34Z" fill="#02CFE9"/>
<path d="M4054.63 491.86V349.429C4023.6 343.494 3998.78 358.331 3995.68 376.134V515.598C4020.21 513.375 4034.56 514.879 4054.63 491.86Z" fill="url(#paint2_linear_159_4726)"/>
<path d="M3650.85 591.402V829.425C3593.57 829.425 3554.38 799.674 3554.38 778.846V680.662C3554.38 624.131 3581.52 591.402 3650.85 591.402Z" fill="url(#paint3_linear_159_4726)"/>
<path d="M3793.82 732.508V972.295C3852.14 972.295 3892.07 942.321 3892.07 921.34V822.428C3892.07 765.477 3864.45 732.508 3793.82 732.508Z" fill="url(#paint4_linear_159_4726)"/>
<path d="M3868.8 681.323H3554.38C3554.38 621.376 3584.63 591.402 3629.98 591.402H3796.24C3844.6 591.402 3864.69 631.789 3868.8 681.323Z" fill="#02CFE9"/>
<path d="M3793.7 972.238V880.553H3557.89C3557.89 926.832 3585.47 969.617 3634.43 972.238H3793.7Z" fill="#02CFE9"/>
<path d="M3650.94 724.688V829.567H3891.96C3891.96 776.629 3863.77 727.684 3813.75 724.688H3650.94Z" fill="#02CFE9"/>
<path d="M3203.4 687.508V589.654H3359.72C3407.96 589.654 3449.92 623.152 3449.92 661.06V816.217L3351.68 713.073V687.508H3203.4Z" fill="url(#paint5_linear_159_4726)"/>
<path d="M3516.84 877.027H3446.28C3434.56 910.688 3399.83 953.118 3345.34 975.765H3442.71C3488.27 970.329 3514.17 935.907 3516.84 877.027Z" fill="url(#paint6_linear_159_4726)"/>
<path fill-rule="evenodd" clip-rule="evenodd" d="M3316.76 979.314C3392.74 979.314 3454.33 918.531 3454.33 843.553C3454.33 768.574 3392.74 707.793 3316.76 707.793C3240.79 707.793 3179.24 768.574 3179.24 843.553C3179.24 918.531 3240.79 979.314 3316.76 979.314ZM3316.73 907.016C3352.27 907.016 3381.07 878.599 3381.07 843.544C3381.07 808.488 3352.27 780.068 3316.73 780.068C3281.23 780.068 3252.45 808.488 3252.45 843.544C3252.45 878.599 3281.23 907.016 3316.73 907.016Z" fill="#02CFE9"/>
<path d="M3139.07 350.748C2973.53 350.454 2642.43 350.748 2633.5 350.748C2633.5 415.103 2671.02 478.575 2725.5 482.102H2835.36V974.016C2921.12 974.016 2970.26 925.532 2970.26 868.229V482.102H3139.07V350.748Z" fill="#02CFE9"/>
<path d="M2458.39 475.039C2455.72 394.817 2515.56 353.383 2595.06 353.383L2594.17 859.402C2594.17 936.98 2532.52 973.126 2458.39 973.126V475.039Z" fill="url(#paint7_linear_159_4726)"/>
<path d="M2227.14 438.903C2249.46 361.324 2328.08 333.995 2413.83 361.324L2246.79 884.094C2225.16 948.593 2208.43 972.902 2169.09 991.646L2094.05 852.36L2227.14 438.903Z" fill="url(#paint8_linear_159_4726)"/>
<path d="M1976.77 444.962C1952.23 368.038 1872.86 342.914 1787.93 372.624L1969.87 890.525C1988.61 943.158 2005.9 978.412 2045.78 996.052C2093.72 1010.5 2136.89 1007.51 2169.05 990.762L1976.77 444.962Z" fill="url(#paint9_linear_159_4726)"/>
<path d="M1474.13 687.508V589.654H1630.44C1678.68 589.654 1720.65 623.152 1720.65 661.06V816.217L1622.4 713.073V687.508H1474.13Z" fill="url(#paint10_linear_159_4726)"/>
<path d="M1787.59 877.027H1717.02C1705.31 910.688 1670.57 953.118 1616.08 975.765H1713.44C1759 970.329 1784.9 935.907 1787.59 877.027Z" fill="url(#paint11_linear_159_4726)"/>
<path fill-rule="evenodd" clip-rule="evenodd" d="M1587.6 979.314C1663.57 979.314 1725.15 918.531 1725.15 843.553C1725.15 768.574 1663.57 707.793 1587.6 707.793C1511.62 707.793 1450.03 768.574 1450.03 843.553C1450.03 918.531 1511.62 979.314 1587.6 979.314ZM1587.56 907.016C1623.08 907.016 1651.87 878.599 1651.87 843.544C1651.87 808.488 1623.08 780.068 1587.56 780.068C1552.05 780.068 1523.25 808.488 1523.25 843.544C1523.25 878.599 1552.05 907.016 1587.56 907.016Z" fill="#02CFE9"/>
<path d="M1144.55 665.445C1142.87 615.465 1180.39 589.65 1230.24 589.65L1229.68 904.923C1229.68 953.258 1191.04 975.776 1144.55 975.776V665.445Z" fill="url(#paint12_linear_159_4726)"/>
<path d="M1328.49 753.622C1374.86 753.622 1412.45 716.521 1412.45 670.754C1412.45 624.988 1374.86 587.887 1328.49 587.887C1282.11 587.887 1244.52 624.988 1244.52 670.754C1244.52 716.521 1282.11 753.622 1328.49 753.622Z" fill="url(#paint13_linear_159_4726)"/>
<path d="M926.52 665.465L1065.86 665.474C1086.41 665.465 1107.84 629.322 1107.84 593.176H926.523L926.52 665.465Z" fill="#0093FF"/>
<path fill-rule="evenodd" clip-rule="evenodd" d="M1098.15 758.894C1098.15 850.428 1022.96 924.628 930.219 924.628C930.076 924.628 929.936 924.628 929.796 924.628H751.562C751.562 892.594 767.825 859.681 790.555 850.947C772.702 824.616 762.29 792.954 762.29 758.894C762.29 667.36 837.474 593.16 930.219 593.16C1022.96 593.16 1098.15 667.36 1098.15 758.894ZM930.225 838.242C974.623 838.242 1010.61 802.719 1010.61 758.9C1010.61 715.082 974.623 679.558 930.225 679.558C885.825 679.558 849.833 715.082 849.833 758.9C849.833 802.719 885.825 838.242 930.225 838.242Z" fill="#02CFE9"/>
<path d="M1037.29 937.873H752.355C752.355 979.308 774.685 1013.69 816.665 1013.69H1105.18C1105.18 974.019 1084.63 937.873 1037.29 937.873Z" fill="#0093FF"/>
<path d="M1105.26 1025.15H853.371C853.371 1068.35 880.868 1100.97 924.327 1100.97H1047.61C1083.98 1100.97 1105.26 1071.87 1105.26 1025.15Z" fill="#00BDFF"/>
<path d="M4750 849.516C4750 917.09 4805.52 971.867 4873.97 971.867H5254.15V849.516H4750Z" fill="#02CFE9"/>
<path d="M5130.18 621.125C5198.63 621.125 5254.15 675.904 5254.15 743.477V971.867L5130.18 971.867V621.125Z" fill="url(#paint14_linear_159_4726)"/>
<path d="M5254.15 743.488C5254.15 675.913 5198.63 621.136 5130.18 621.136H4750V743.488H5254.15Z" fill="#02CFE9"/>
<path d="M4874.43 394.002C4805.32 394.002 4749.3 465.104 4749.3 552.8V849.232H4874.43V394.002Z" fill="url(#paint15_linear_159_4726)"/>
<path d="M5255.12 394.001C5255.12 460.164 5213.2 513.799 5161.52 513.799H4874.43V394.001H5255.12Z" fill="#02CFE9"/>
<defs>
<linearGradient id="paint0_linear_159_4726" x1="4599.65" y1="391.713" x2="4599.65" y2="742.455" gradientUnits="userSpaceOnUse">
<stop stop-color="#0093FF"/>
<stop offset="1" stop-color="#005899"/>
</linearGradient>
<linearGradient id="paint1_linear_159_4726" x1="4219.49" y1="620.098" x2="4219.49" y2="970.839" gradientUnits="userSpaceOnUse">
<stop stop-color="#0093FF"/>
<stop offset="1" stop-color="#005899"/>
</linearGradient>
<linearGradient id="paint2_linear_159_4726" x1="4025.16" y1="348.1" x2="4025.16" y2="515.598" gradientUnits="userSpaceOnUse">
<stop stop-color="#00BDFF"/>
<stop offset="1" stop-color="#006E99"/>
</linearGradient>
<linearGradient id="paint3_linear_159_4726" x1="3602.61" y1="591.402" x2="3602.61" y2="829.425" gradientUnits="userSpaceOnUse">
<stop stop-color="#00BDFF"/>
<stop offset="1" stop-color="#006E99"/>
</linearGradient>
<linearGradient id="paint4_linear_159_4726" x1="3842.94" y1="732.508" x2="3842.94" y2="972.295" gradientUnits="userSpaceOnUse">
<stop stop-color="#00BDFF"/>
<stop offset="1" stop-color="#006E99"/>
</linearGradient>
<linearGradient id="paint5_linear_159_4726" x1="3326.66" y1="589.654" x2="3326.66" y2="816.217" gradientUnits="userSpaceOnUse">
<stop stop-color="#0093FF"/>
<stop offset="1" stop-color="#005899"/>
</linearGradient>
<linearGradient id="paint6_linear_159_4726" x1="3431.09" y1="877.027" x2="3431.09" y2="975.765" gradientUnits="userSpaceOnUse">
<stop stop-color="#0093FF"/>
<stop offset="1" stop-color="#005899"/>
</linearGradient>
<linearGradient id="paint7_linear_159_4726" x1="2526.68" y1="353.383" x2="2526.68" y2="973.126" gradientUnits="userSpaceOnUse">
<stop stop-color="#0093FF"/>
<stop offset="1" stop-color="#005899"/>
</linearGradient>
<linearGradient id="paint8_linear_159_4726" x1="2253.94" y1="351.006" x2="2253.94" y2="991.646" gradientUnits="userSpaceOnUse">
<stop stop-color="#0093FF"/>
<stop offset="1" stop-color="#005899"/>
</linearGradient>
<linearGradient id="paint9_linear_159_4726" x1="1978.49" y1="360.49" x2="1978.49" y2="1005.31" gradientUnits="userSpaceOnUse">
<stop stop-color="#00BDFF"/>
<stop offset="1" stop-color="#006E99"/>
</linearGradient>
<linearGradient id="paint10_linear_159_4726" x1="1597.39" y1="589.654" x2="1597.39" y2="816.217" gradientUnits="userSpaceOnUse">
<stop stop-color="#0093FF"/>
<stop offset="1" stop-color="#005899"/>
</linearGradient>
<linearGradient id="paint11_linear_159_4726" x1="1701.83" y1="877.027" x2="1701.83" y2="975.765" gradientUnits="userSpaceOnUse">
<stop stop-color="#0093FF"/>
<stop offset="1" stop-color="#005899"/>
</linearGradient>
<linearGradient id="paint12_linear_159_4726" x1="1187.37" y1="589.65" x2="1187.37" y2="975.776" gradientUnits="userSpaceOnUse">
<stop stop-color="#0093FF"/>
<stop offset="1" stop-color="#005899"/>
</linearGradient>
<linearGradient id="paint13_linear_159_4726" x1="1328.49" y1="587.887" x2="1328.49" y2="753.622" gradientUnits="userSpaceOnUse">
<stop stop-color="#00BDFF"/>
<stop offset="1" stop-color="#006E99"/>
</linearGradient>
<linearGradient id="paint14_linear_159_4726" x1="5192.16" y1="971.867" x2="5192.16" y2="621.125" gradientUnits="userSpaceOnUse">
<stop stop-color="#00BDFF"/>
<stop offset="1" stop-color="#006E99"/>
</linearGradient>
<linearGradient id="paint15_linear_159_4726" x1="4811.87" y1="849.232" x2="4811.87" y2="394.002" gradientUnits="userSpaceOnUse">
<stop stop-color="#00BDFF"/>
<stop offset="1" stop-color="#006E99"/>
</linearGradient>
</defs>
</svg>
